<?xml version="1.0" encoding="UTF-8" standalone="no"?>
<svg
   xmlns:dc="http://purl.org/dc/elements/1.1/"
   xmlns:cc="http://creativecommons.org/ns#"
   xmlns:rdf="http://www.w3.org/1999/02/22-rdf-syntax-ns#"
   xmlns:svg="http://www.w3.org/2000/svg"
   xmlns="http://www.w3.org/2000/svg"
   xmlns:sodipodi="http://sodipodi.sourceforge.net/DTD/sodipodi-0.dtd"
   xmlns:inkscape="http://www.inkscape.org/namespaces/inkscape"
   viewBox="0 0 1024 588"
   enable-background="new 0 0 1024 588"
   id="svg2"
   version="1.1"
   inkscape:version="0.91 r"
   sodipodi:docname="mute-01.svg">
  <metadata
     id="metadata18">
    <rdf:RDF>
      <cc:Work
         rdf:about="">
        <dc:format>image/svg+xml</dc:format>
        <dc:type
           rdf:resource="http://purl.org/dc/dcmitype/StillImage" />
      </cc:Work>
    </rdf:RDF>
  </metadata>
  <defs
     id="defs16" />
  <sodipodi:namedview
     pagecolor="#ffffff"
     bordercolor="#666666"
     borderopacity="1"
     objecttolerance="10"
     gridtolerance="10"
     guidetolerance="10"
     inkscape:pageopacity="0"
     inkscape:pageshadow="2"
     inkscape:window-width="1366"
     inkscape:window-height="721"
     id="namedview14"
     showgrid="false"
     inkscape:zoom="18.651087"
     inkscape:cx="160.8"
     inkscape:cy="28.8"
     inkscape:window-x="-3"
     inkscape:window-y="-3"
     inkscape:window-maximized="1"
     inkscape:current-layer="svg2" />
  <path
     style="fill:#805a8d;fill-opacity:0.99607843;stroke:none;stroke-width:0.5;stroke-miterlimit:4;stroke-dasharray:none;stroke-opacity:1"
     d="m 145.24058,559.21072 0,-15.54869 15.5487,0 15.54869,0 0,15.54869 0,15.5487 -15.54869,0 -15.5487,0 0,-15.5487 z m 30.02507,0.95678 0,-13.46597 -0.11843,0.10214 c -0.10312,0.0889 -6.22676,5.93729 -6.83921,6.53175 l -0.2288,0.22208 0.45929,0.63466 c 0.47798,0.66047 0.57659,0.87413 0.19075,0.41329 -0.12279,-0.14667 -0.36745,-0.39158 -0.54368,-0.54425 l -0.32042,-0.27759 -0.54883,0.51484 c -0.30186,0.28316 -0.85824,0.8106 -1.23639,1.17209 l -0.68755,0.65725 0.21841,0.30418 c 0.12012,0.16729 0.21841,0.31942 0.21841,0.33806 0,0.0186 -0.12369,-0.0879 -0.27486,-0.23665 l -0.27485,-0.27055 -0.32833,0.30397 c -0.18058,0.16718 -1.37169,1.30435 -2.6469,2.52703 l -2.31858,2.22306 -0.0137,4.20109 -0.0137,4.20108 -1.84976,-1.95817 c -1.01737,-1.077 -1.9488,-2.06969 -2.06985,-2.20599 l -0.22009,-0.24781 -3.93516,3.76809 c -2.16434,2.07244 -4.11593,3.94588 -4.33686,4.16319 l -0.40169,0.39511 14.06041,0 14.06042,0 0,-13.46598 z m -24.79383,7.77232 4.04536,-3.97793 -0.17383,-0.19072 c -0.0956,-0.1049 -0.35463,-0.37771 -0.57561,-0.60625 l -0.40179,-0.41553 -2.15931,0 -2.15931,0 0,-2.46634 0,-2.46635 2.2921,-0.002 2.29209,-0.002 0.50935,-0.63544 c 0.28015,-0.34949 1.70365,-2.10977 3.16336,-3.91172 l 2.654,-3.27628 0.0137,4.29996 0.0137,4.29995 0.95136,-0.93862 c 0.52325,-0.51624 1.88027,-1.85037 3.01559,-2.96472 l 2.06422,-2.02609 0.0268,-0.96489 0.0268,-0.96488 0.37531,0.5387 c 0.20643,0.29628 0.3933,0.53354 0.41528,0.52724 0.0421,-0.0121 5.45336,-5.30934 6.55399,-6.41594 l 0.64256,-0.64605 -13.84555,0 -13.84554,0 0,13.59171 c 0,7.47543 0.0135,13.5917 0.03,13.5917 0.0165,0 1.85039,-1.79007 4.07533,-3.97794 z"
     id="path4148"
     inkscape:connector-curvature="0" />
  <path
     style="fill:#805a8d;fill-opacity:0.99607843;stroke:none;stroke-width:0.5;stroke-miterlimit:4;stroke-dasharray:none;stroke-opacity:1"
     d="m 164.00625,564.67825 c 0,-0.4776 0.0146,-0.58845 0.0775,-0.58845 0.13272,0 0.85815,-0.40004 1.19383,-0.65834 0.63432,-0.4881 1.11941,-1.12787 1.37619,-1.81501 0.20653,-0.55268 0.26527,-1.01983 0.23235,-1.84802 -0.0312,-0.785 -0.11713,-1.20194 -0.37927,-1.84012 -0.0777,-0.18927 -0.13325,-0.35222 -0.12335,-0.36212 0.01,-0.01 0.39828,0.51771 0.86306,1.17246 l 0.84507,1.19046 -0.036,0.40484 c -0.11371,1.27756 -0.66049,2.41956 -1.60623,3.3547 -0.58476,0.57822 -1.63033,1.26901 -2.31441,1.5291 l -0.12875,0.0489 0,-0.58845 z"
     id="path4150"
     inkscape:connector-curvature="0" />
  <path
     style="fill:#805a8d;fill-opacity:0.99607843;stroke:none;stroke-width:0.5;stroke-miterlimit:4;stroke-dasharray:none;stroke-opacity:1"
     d="m 166.09727,568.33873 0,-1.01268 0.55009,-0.27344 c 1.6451,-0.81775 2.93901,-2.20895 3.57074,-3.83921 0.43114,-1.11261 0.5702,-1.99492 0.52944,-3.35928 -0.0437,-1.4617 -0.31546,-2.57517 -0.90183,-3.69463 -0.14533,-0.27745 -0.25637,-0.51232 -0.24676,-0.52193 0.0164,-0.0164 2.96503,4.0719 3.15353,4.3724 0.18083,0.28829 -0.0374,2.01006 -0.39134,3.08794 -0.22312,0.67941 -0.78585,1.78624 -1.21137,2.38264 -0.81525,1.14262 -2.01925,2.24007 -3.30997,3.01708 -0.36242,0.21817 -1.43773,0.75949 -1.62189,0.81646 l -0.12064,0.0373 0,-1.01268 z"
     id="path4152"
     inkscape:connector-curvature="0" />
</svg>
