<?xml version="1.0" encoding="UTF-8" standalone="no"?>
<svg
   xmlns:dc="http://purl.org/dc/elements/1.1/"
   xmlns:cc="http://creativecommons.org/ns#"
   xmlns:rdf="http://www.w3.org/1999/02/22-rdf-syntax-ns#"
   xmlns:svg="http://www.w3.org/2000/svg"
   xmlns="http://www.w3.org/2000/svg"
   xmlns:sodipodi="http://sodipodi.sourceforge.net/DTD/sodipodi-0.dtd"
   xmlns:inkscape="http://www.inkscape.org/namespaces/inkscape"
   viewBox="0 0 1024 588"
   enable-background="new 0 0 1024 588"
   id="svg2"
   version="1.1"
   inkscape:version="0.91 r"
   sodipodi:docname="glosario-01.svg">
  <metadata
     id="metadata18">
    <rdf:RDF>
      <cc:Work
         rdf:about="">
        <dc:format>image/svg+xml</dc:format>
        <dc:type
           rdf:resource="http://purl.org/dc/dcmitype/StillImage" />
      </cc:Work>
    </rdf:RDF>
  </metadata>
  <defs
     id="defs16" />
  <sodipodi:namedview
     pagecolor="#ffffff"
     bordercolor="#666666"
     borderopacity="1"
     objecttolerance="10"
     gridtolerance="10"
     guidetolerance="10"
     inkscape:pageopacity="0"
     inkscape:pageshadow="2"
     inkscape:window-width="1366"
     inkscape:window-height="721"
     id="namedview14"
     showgrid="false"
     inkscape:zoom="6.662142"
     inkscape:cx="938.35"
     inkscape:cy="29.05"
     inkscape:window-x="-3"
     inkscape:window-y="-3"
     inkscape:window-maximized="1"
     inkscape:current-layer="svg2" />
  <path
     style="fill:#805a8d;fill-opacity:1;stroke:none;stroke-width:0.5;stroke-miterlimit:4;stroke-dasharray:none;stroke-opacity:1"
     d="m 961.07456,559.8056 0,-17.93719 8.54563,0.006 8.54562,0.006 5.11365,4.45168 5.11365,4.45166 0,13.4794 0,13.47939 -13.65928,0 -13.65927,0 0,-17.93718 z m 24.71024,4.92261 0,-11.26132 -4.59885,0 -4.59884,0 0,-4.51802 0,-4.51801 -6.45212,0 -6.45212,0 0,15.77934 0,15.77933 11.05096,0 11.05097,0 0,-11.26132 z"
     id="path4146"
     inkscape:connector-curvature="0" />
  <path
     style="fill:#805a8d;fill-opacity:1;stroke:none;stroke-width:0.5;stroke-miterlimit:4;stroke-dasharray:none;stroke-opacity:1"
     d="m 967.52668,558.1872 0,-1.34866 7.20715,0 7.20716,0 0,1.34866 0,1.34867 -7.20716,0 -7.20715,0 0,-1.34867 z"
     id="path4148"
     inkscape:connector-curvature="0" />
  <path
     style="fill:#805a8d;fill-opacity:1;stroke:none;stroke-width:0.5;stroke-miterlimit:4;stroke-dasharray:none;stroke-opacity:1"
     d="m 967.52668,563.98645 0,-1.34867 7.20715,0 7.20716,0 0,1.34867 0,1.34866 -7.20716,0 -7.20715,0 0,-1.34866 z"
     id="path4150"
     inkscape:connector-curvature="0" />
  <path
     style="fill:#805a8d;fill-opacity:1;stroke:none;stroke-width:0.5;stroke-miterlimit:4;stroke-dasharray:none;stroke-opacity:1"
     d="m 967.52668,569.78569 0,-1.34866 7.20715,0 7.20716,0 0,1.34866 0,1.34866 -7.20716,0 -7.20715,0 0,-1.34866 z"
     id="path4152"
     inkscape:connector-curvature="0" />
  <path
     style="fill:#805a8d;fill-opacity:1;stroke:none;stroke-width:0.5;stroke-miterlimit:4;stroke-dasharray:none;stroke-opacity:1"
     d="m 906.29851,581.53283 c 17.59834,-0.021 46.44041,-0.021 64.0935,0 17.65308,0.021 3.25445,0.0382 -31.99698,0.0382 -35.25142,0 -49.69486,-0.0172 -32.09652,-0.0382 z"
     id="path4154"
     inkscape:connector-curvature="0" />
  <path
     style="fill:#805a8d;fill-opacity:1;stroke:none;stroke-width:0.5;stroke-miterlimit:4;stroke-dasharray:none;stroke-opacity:1"
     d="m 920.50743,581.53283 c 9.89271,-0.0213 26.03617,-0.0213 35.87435,0 9.83818,0.0213 1.74414,0.0388 -17.98675,0.0388 -19.73089,0 -27.78031,-0.0174 -17.8876,-0.0388 z"
     id="path4156"
     inkscape:connector-curvature="0" />
  <path
     style="fill:#805a8d;fill-opacity:1;stroke:none;stroke-width:0.5;stroke-miterlimit:4;stroke-dasharray:none;stroke-opacity:1"
     d="m 874.37658,558.98002 0,-22.51528 64.01845,0 64.01847,0 0,22.51528 0,22.51528 -64.01847,0 -64.01845,0 0,-22.51528 z m 127.28642,0 0,-21.76477 -63.26797,0 -63.26794,0 0,21.76477 0,21.76477 63.26794,0 63.26797,0 0,-21.76477 z"
     id="path4158"
     inkscape:connector-curvature="0" />
  <text
     xml:space="preserve"
     style="font-style:normal;font-weight:normal;font-size:17.5px;line-height:125%;font-family:Sans;letter-spacing:0px;word-spacing:0px;fill:#000000;fill-opacity:1;stroke:none;stroke-width:1px;stroke-linecap:butt;stroke-linejoin:miter;stroke-opacity:1"
     x="887.59698"
     y="575.34277"
     id="text4160"
     sodipodi:linespacing="125%"><tspan
       sodipodi:role="line"
       id="tspan4162"
       x="887.59698"
       y="575.34277"
       style="font-style:normal;font-variant:normal;font-weight:normal;font-stretch:normal;font-family:'Abyssinica SIL';-inkscape-font-specification:'Abyssinica SIL';fill:#805a8d;fill-opacity:1">Glosario</tspan></text>
</svg>
