<?xml version="1.0" encoding="UTF-8" standalone="no"?>
<svg
   xmlns:dc="http://purl.org/dc/elements/1.1/"
   xmlns:cc="http://creativecommons.org/ns#"
   xmlns:rdf="http://www.w3.org/1999/02/22-rdf-syntax-ns#"
   xmlns:svg="http://www.w3.org/2000/svg"
   xmlns="http://www.w3.org/2000/svg"
   xmlns:sodipodi="http://sodipodi.sourceforge.net/DTD/sodipodi-0.dtd"
   xmlns:inkscape="http://www.inkscape.org/namespaces/inkscape"
   viewBox="0 0 1024 588"
   enable-background="new 0 0 1024 588"
   id="svg2"
   version="1.1"
   inkscape:version="0.91 r"
   sodipodi:docname="Interface-01.svg">
  <metadata
     id="metadata20">
    <rdf:RDF>
      <cc:Work
         rdf:about="">
        <dc:format>image/svg+xml</dc:format>
        <dc:type
           rdf:resource="http://purl.org/dc/dcmitype/StillImage" />
      </cc:Work>
    </rdf:RDF>
  </metadata>
  <defs
     id="defs18" />
  <sodipodi:namedview
     pagecolor="#ffffff"
     bordercolor="#666666"
     borderopacity="1"
     objecttolerance="10"
     gridtolerance="10"
     guidetolerance="10"
     inkscape:pageopacity="0"
     inkscape:pageshadow="2"
     inkscape:window-width="1366"
     inkscape:window-height="721"
     id="namedview16"
     showgrid="false"
     inkscape:zoom="0.83398438"
     inkscape:cx="365.95505"
     inkscape:cy="294"
     inkscape:window-x="-3"
     inkscape:window-y="-3"
     inkscape:window-maximized="1"
     inkscape:current-layer="svg2" />
  <g
     id="g4">
    <path
       d="M0 0h1024v588h-1024z"
       id="path6"
       fill="#444" />
    <path
       d="M4.4 4.8h1015.1v578.3h-1015.1z"
       id="path8"
       fill="#ddd" />
    <path
       d="M4.4 482.8h1015.1v97.3h-1015.1z"
       id="path10" />
    <path
       d="M4.4 534.5h1015.1v48.7h-1015.1z"
       id="path12"
       fill="#fff" />
    <path
       d="M214 535.2h2v50.7h-2zM581 535.2h2v50.7h-2z"
       id="path14"
       fill="#444" />
  </g>
  <path
     style="fill:#805a8d;fill-opacity:1;stroke:none;stroke-width:0.5;stroke-miterlimit:4;stroke-dasharray:none;stroke-opacity:1"
     d="m 0.95925059,294.23981 0,-293.77048916 511.40046941,0 511.40048,0 0,293.77048916 0,293.77049 -511.40048,0 -511.40046941,0 0,-293.77049 z M 214.66601,558.93302 l 0.27351,-24.28103 0.35086,24.28103 0.35084,24.28103 182.83232,0 182.83231,0 0.27351,-24.28103 0.27351,-24.28103 0.35086,24.28103 0.35084,24.28103 218.63454,0 218.63459,0 0.2339,-289.57517 0.234,-289.5751753 L 512.12426,4.3648734 3.9569087,4.6660422 3.8243943,293.94005 3.69188,583.21405 l 105.35031,0 105.35032,0 0.2735,-24.28103 z"
     id="path4148"
     inkscape:connector-curvature="0" />
  <path
     sodipodi:type="star"
     style="opacity:0.79000005;fill:#805a8d;fill-opacity:1;stroke:none;stroke-width:0.5;stroke-miterlimit:4;stroke-dasharray:none;stroke-opacity:1"
     id="path4715"
     sodipodi:sides="5"
     sodipodi:cx="37.17096"
     sodipodi:cy="90.38876"
     sodipodi:r1="21.583138"
     sodipodi:r2="10.791569"
     sodipodi:arg1="1.5707963"
     sodipodi:arg2="2.1991149"
     inkscape:flatsided="false"
     inkscape:rounded="0"
     inkscape:randomized="0"
     d="M 37.17096,111.9719 30.827834,99.119326 16.644176,97.05832 26.907568,87.053985 24.484709,72.927639 37.17096,79.597195 49.857209,72.927638 47.434351,87.053986 57.697743,97.058319 43.514084,99.119326 Z"
     inkscape:transform-center-y="2.0610063" />
  <path
     sodipodi:type="star"
     style="opacity:0.79000005;fill:#805a8d;fill-opacity:1;stroke:none;stroke-width:0.5;stroke-miterlimit:4;stroke-dasharray:none;stroke-opacity:1"
     id="path4717"
     sodipodi:sides="5"
     sodipodi:cx="45.967213"
     sodipodi:cy="188.71194"
     sodipodi:r1="37.632252"
     sodipodi:r2="18.816126"
     sodipodi:arg1="1.1784562"
     sodipodi:arg2="1.8067747"
     inkscape:flatsided="false"
     inkscape:rounded="0"
     inkscape:randomized="0"
     d="m 60.355971,223.48478 -18.787862,-16.47818 -24.225456,6.13526 9.865909,-22.96035 -13.321059,-21.14388 24.88533,2.2879 15.992589,-19.2029 5.51407,24.37435 23.205022,9.27584 -21.477446,12.77628 z"
     inkscape:transform-center-x="-2.7187959"
     inkscape:transform-center-y="-0.90823995" />
  <path
     sodipodi:type="star"
     style="opacity:0.79000005;fill:#805a8d;fill-opacity:1;stroke:none;stroke-width:0.5;stroke-miterlimit:4;stroke-dasharray:none;stroke-opacity:1"
     id="path4715-6"
     sodipodi:sides="5"
     sodipodi:cx="38.370022"
     sodipodi:cy="285.76569"
     sodipodi:r1="21.583138"
     sodipodi:r2="10.791569"
     sodipodi:arg1="1.5707963"
     sodipodi:arg2="2.1991149"
     inkscape:flatsided="false"
     inkscape:rounded="0"
     inkscape:randomized="0"
     d="m 38.370022,307.34882 -6.343126,-12.85257 -14.183658,-2.06101 10.263392,-10.00433 -2.422859,-14.12635 12.686251,6.66956 12.686249,-6.66956 -2.422857,14.12635 10.263392,10.00433 -14.18366,2.06101 z"
     inkscape:transform-center-y="2.0610063" />
  <path
     sodipodi:type="star"
     style="opacity:0.79000005;fill:#805a8d;fill-opacity:1;stroke:none;stroke-width:0.5;stroke-miterlimit:4;stroke-dasharray:none;stroke-opacity:1"
     id="path4734"
     sodipodi:sides="5"
     sodipodi:cx="58.754097"
     sodipodi:cy="348.19672"
     sodipodi:r1="10.857979"
     sodipodi:r2="5.4289899"
     sodipodi:arg1="1.6814535"
     sodipodi:arg2="2.3097721"
     inkscape:flatsided="false"
     inkscape:rounded="0"
     inkscape:randomized="0"
     d="m 57.555034,358.98828 -2.457531,-6.77868 -6.977328,-1.81848 5.687491,-4.43198 -0.426632,-7.19778 5.972595,4.03957 6.713655,-2.62998 -1.996225,6.92857 4.575899,5.57235 -7.20633,0.24252 z"
     inkscape:transform-center-x="0.37053091"
     inkscape:transform-center-y="0.6781073" />
  <path
     sodipodi:type="star"
     style="opacity:0.79000005;fill:#805a8d;fill-opacity:1;stroke:none;stroke-width:0.5;stroke-miterlimit:4;stroke-dasharray:none;stroke-opacity:1"
     id="path4736"
     sodipodi:sides="5"
     sodipodi:cx="70.346603"
     sodipodi:cy="400.55737"
     sodipodi:r1="7.6777506"
     sodipodi:r2="3.8388753"
     sodipodi:arg1="2.2455373"
     sodipodi:arg2="2.8738558"
     inkscape:flatsided="false"
     inkscape:rounded="0"
     inkscape:randomized="0"
     d="m 65.55035,406.55269 1.094149,-4.97974 -3.481903,-3.72443 5.074127,-0.49823 2.466172,-4.4624 2.041835,4.67183 5.006082,0.96651 -3.812205,3.38557 0.627757,5.05974 -4.397906,-2.57943 z"
     inkscape:transform-center-x="-0.11010019"
     inkscape:transform-center-y="-0.6276586" />
</svg>
