<?xml version="1.0" encoding="UTF-8" standalone="no"?>
<svg
   xmlns:dc="http://purl.org/dc/elements/1.1/"
   xmlns:cc="http://creativecommons.org/ns#"
   xmlns:rdf="http://www.w3.org/1999/02/22-rdf-syntax-ns#"
   xmlns:svg="http://www.w3.org/2000/svg"
   xmlns="http://www.w3.org/2000/svg"
   xmlns:sodipodi="http://sodipodi.sourceforge.net/DTD/sodipodi-0.dtd"
   xmlns:inkscape="http://www.inkscape.org/namespaces/inkscape"
   viewBox="0 0 1024 588"
   enable-background="new 0 0 1024 588"
   id="svg2"
   version="1.1"
   inkscape:version="0.91 r"
   sodipodi:docname="interprete-01.svg">
  <metadata
     id="metadata18">
    <rdf:RDF>
      <cc:Work
         rdf:about="">
        <dc:format>image/svg+xml</dc:format>
        <dc:type
           rdf:resource="http://purl.org/dc/dcmitype/StillImage" />
      </cc:Work>
    </rdf:RDF>
  </metadata>
  <defs
     id="defs16" />
  <sodipodi:namedview
     pagecolor="#ffffff"
     bordercolor="#666666"
     borderopacity="1"
     objecttolerance="10"
     gridtolerance="10"
     guidetolerance="10"
     inkscape:pageopacity="0"
     inkscape:pageshadow="2"
     inkscape:window-width="1366"
     inkscape:window-height="721"
     id="namedview14"
     showgrid="false"
     inkscape:zoom="6.662142"
     inkscape:cx="772.97012"
     inkscape:cy="33.920895"
     inkscape:window-x="-3"
     inkscape:window-y="-3"
     inkscape:window-maximized="1"
     inkscape:current-layer="svg2" />
  <path
     style="fill:#805a8d;fill-opacity:1;stroke:none;stroke-width:0.5;stroke-miterlimit:4;stroke-dasharray:none;stroke-opacity:1"
     d="m 812.75207,562.27967 c -1.25214,-0.14087 -5.0095,-0.71185 -5.58584,-0.84884 -0.44358,-0.10544 -1.71356,-2.67636 -2.17456,-4.40213 -0.28719,-1.07508 -0.34073,-1.6538 -0.3402,-3.67749 7.5e-4,-2.90324 0.23442,-3.91069 1.1477,-4.94823 0.50141,-0.56963 0.76546,-0.72138 1.81842,-1.04504 0.76116,-0.23397 1.69065,-0.67534 2.43265,-1.15514 0.66045,-0.42708 1.70741,-1.01947 2.32658,-1.31643 1.06448,-0.51054 1.22345,-0.54292 2.92038,-0.59485 1.14857,-0.0352 2.51473,0.0389 3.79495,0.2056 1.8506,0.24103 2.73605,0.24709 11.82967,0.081 7.38817,-0.13496 9.95861,-0.13689 10.34981,-0.008 1.1705,0.3863 1.49809,1.66663 0.66826,2.61175 -0.89868,1.02354 -0.36958,0.97219 -14.27873,1.38584 -3.13459,0.0932 -3.40906,0.12308 -3.47578,0.37821 -0.0398,0.15235 -0.0281,0.30262 0.026,0.33394 0.0542,0.0313 3.84728,0.68085 8.42914,1.44339 4.66544,0.77646 8.60575,1.50475 8.95593,1.65534 0.3439,0.14789 0.73904,0.44252 0.87809,0.65474 0.49532,0.75596 0.19035,2.06336 -0.60249,2.58284 -0.83054,0.54419 -1.21346,0.52569 -9.66096,-0.46689 -4.49611,-0.52829 -8.23141,-0.92551 -8.30067,-0.8827 -0.25383,0.15687 -0.11458,0.33864 0.32439,0.42343 0.24767,0.0478 0.63986,0.12324 0.87152,0.16756 0.55053,0.10533 0.92971,0.76058 0.92971,1.60659 0,0.62882 -0.059,0.72196 -1.07828,1.70302 -0.99069,0.9535 -1.07518,1.08264 -1.04003,1.58967 0.0227,0.32789 -0.067,0.71241 -0.22095,0.94745 -0.31109,0.47477 -1.39638,1.04869 -2.55261,1.34985 -1.03958,0.27078 -6.64936,0.4214 -8.39215,0.22533 z"
     id="path4146"
     inkscape:connector-curvature="0" />
  <path
     style="fill:#805a8d;fill-opacity:1;stroke:none;stroke-width:0.5;stroke-miterlimit:4;stroke-dasharray:none;stroke-opacity:1"
     d="m 823.50588,578.86361 c -0.24849,-0.2091 -0.52942,-0.61534 -0.62428,-0.90276 -0.14836,-0.44954 -0.12755,-0.61539 0.14886,-1.18636 0.17673,-0.36507 0.57067,-0.88818 0.87543,-1.16246 0.30476,-0.27427 2.85067,-2.0807 5.65758,-4.01428 2.8069,-1.93357 5.13161,-3.5372 5.16601,-3.5636 0.12835,-0.0985 -0.0831,-0.16687 -0.81306,-0.26274 l -0.75051,-0.0986 -3.90265,2.57555 c -3.84096,2.53484 -5.91194,4.04396 -6.70901,4.88886 -0.48714,0.51638 -0.9537,1.54701 -1.09455,2.41787 -0.10014,0.61921 -0.11975,0.63793 -0.66799,0.63793 -1.75733,0 -3.20404,-1.36152 -2.71113,-2.5515 0.44688,-1.07887 2.06211,-2.26902 8.74144,-6.44094 1.62933,-1.01769 2.93021,-1.90244 2.89085,-1.96613 -0.0394,-0.0637 -0.32549,-0.14848 -0.63584,-0.18841 -0.47262,-0.0608 -0.7837,0.0501 -1.91519,0.6829 -2.18268,1.22069 -5.58926,3.23942 -6.79788,4.02842 -1.26546,0.8261 -1.63426,0.90271 -1.76862,0.36737 -0.28237,-1.12505 0.65246,-1.95245 5.26426,-4.65935 2.61351,-1.53401 3.37472,-2.0574 5.96302,-4.10005 1.86474,-1.47162 6.28423,-4.48587 7.92453,-5.40479 1.18432,-0.66348 3.30514,-1.33494 4.87518,-1.5435 1.60842,-0.21366 4.77213,-0.096 6.303,0.23448 3.11577,0.67255 6.06869,2.06225 8.33417,3.92221 0.86561,0.71068 1.7427,1.35863 1.94909,1.43991 0.20639,0.0813 1.32089,0.31116 2.47668,0.51084 2.33733,0.40382 2.74899,0.60458 3.04338,1.48422 0.16142,0.48231 0.15387,0.70133 -0.0482,1.39629 -0.73899,2.54207 -3.30924,2.63117 -9.81265,0.34016 -1.92837,-0.67932 -2.19834,-0.73987 -2.47668,-0.55553 -0.17182,0.1138 -1.0345,0.77267 -1.91707,1.46416 -1.5835,1.24068 -4.16586,2.85565 -6.80104,4.25326 -2.29253,1.21589 -6.6587,3.88865 -8.7833,5.37672 -2.86268,2.00502 -4.04213,2.54488 -5.02235,2.29886 -0.40361,-0.1013 -0.82928,-0.77223 -0.82928,-1.30709 0,-0.1826 0.17317,-0.62749 0.38483,-0.98865 0.30867,-0.52671 1.33715,-1.36694 5.1973,-4.24599 5.12641,-3.82349 4.95074,-3.63687 3.57748,-3.80052 -0.47305,-0.0564 -0.90089,0.19962 -4.56463,2.73122 -5.55632,3.83935 -6.38571,4.71019 -6.3929,6.71248 l -0.003,0.91702 -0.97881,0.32132 c -1.34597,0.44185 -2.17831,0.42406 -2.7522,-0.0588 z m 26.24629,-14.70507 0,-0.52536 -0.71298,-0.002 c -1.91518,-0.006 -4.12709,-0.93592 -5.33397,-2.24257 -0.73309,-0.79371 -1.31064,-1.93928 -1.30878,-2.596 6.1e-4,-0.21524 -0.13479,-0.26267 -0.74977,-0.26267 -0.41278,0 -0.74951,0.0507 -0.74829,0.11257 0.01,0.48907 0.53135,2.17626 0.85921,2.77864 1.06636,1.95926 3.76557,3.20224 7.05644,3.24949 l 0.93814,0.0135 0,-0.52535 z"
     id="path4148"
     inkscape:connector-curvature="0" />
  <path
     style="fill:#805a8d;fill-opacity:1;stroke:none;stroke-width:0.5;stroke-miterlimit:4;stroke-dasharray:none;stroke-opacity:1"
     d="m 738.37658,558.98002 0,-22.51528 64.01845,0 64.01845,0 0,22.51528 0,22.51528 -64.01845,0 -64.01845,0 0,-22.51528 z m 127.28639,0 0,-21.76477 -63.26794,0 -63.26794,0 0,21.76477 0,21.76477 63.26794,0 63.26794,0 0,-21.76477 z"
     id="path4150"
     inkscape:connector-curvature="0" />
  <text
     xml:space="preserve"
     style="font-style:normal;font-weight:normal;font-size:17.5px;line-height:125%;font-family:Sans;letter-spacing:0px;word-spacing:0px;fill:#000000;fill-opacity:1;stroke:none;stroke-width:1px;stroke-linecap:butt;stroke-linejoin:miter;stroke-opacity:1;"
     x="746.30652"
     y="553.32648"
     id="text4152"
     sodipodi:linespacing="125%"><tspan
       sodipodi:role="line"
       id="tspan4154"
       x="746.30652"
       y="553.32648" /></text>
  <text
     xml:space="preserve"
     style="font-style:normal;font-weight:normal;font-size:40px;line-height:125%;font-family:Sans;letter-spacing:0px;word-spacing:0px;fill:#000000;fill-opacity:1;stroke:none;stroke-width:1px;stroke-linecap:butt;stroke-linejoin:miter;stroke-opacity:1"
     x="752.46069"
     y="547.47247"
     id="text4156"
     sodipodi:linespacing="125%"><tspan
       sodipodi:role="line"
       id="tspan4158"
       x="752.46069"
       y="547.47247" /></text>
  <text
     xml:space="preserve"
     style="font-style:normal;font-weight:normal;font-size:17.5px;line-height:125%;font-family:Sans;letter-spacing:0px;word-spacing:0px;fill:#000000;fill-opacity:1;stroke:none;stroke-width:1px;stroke-linecap:butt;stroke-linejoin:miter;stroke-opacity:1"
     x="740.00226"
     y="576.59222"
     id="text4160"
     sodipodi:linespacing="125%"><tspan
       sodipodi:role="line"
       id="tspan4162"
       x="740.00226"
       y="576.59222"
       style="font-style:normal;font-variant:normal;font-weight:normal;font-stretch:normal;font-family:'Abyssinica SIL';-inkscape-font-specification:'Abyssinica SIL';fill:#805a8d;fill-opacity:1">Intérprete</tspan></text>
</svg>
