<?xml version="1.0" encoding="UTF-8" standalone="no"?>
<svg
   xmlns:dc="http://purl.org/dc/elements/1.1/"
   xmlns:cc="http://creativecommons.org/ns#"
   xmlns:rdf="http://www.w3.org/1999/02/22-rdf-syntax-ns#"
   xmlns:svg="http://www.w3.org/2000/svg"
   xmlns="http://www.w3.org/2000/svg"
   xmlns:sodipodi="http://sodipodi.sourceforge.net/DTD/sodipodi-0.dtd"
   xmlns:inkscape="http://www.inkscape.org/namespaces/inkscape"
   viewBox="0 0 1024 588"
   enable-background="new 0 0 1024 588"
   id="svg2"
   version="1.1"
   inkscape:version="0.91 r"
   sodipodi:docname="line2-01.svg">
  <metadata
     id="metadata10">
    <rdf:RDF>
      <cc:Work
         rdf:about="">
        <dc:format>image/svg+xml</dc:format>
        <dc:type
           rdf:resource="http://purl.org/dc/dcmitype/StillImage" />
      </cc:Work>
    </rdf:RDF>
  </metadata>
  <defs
     id="defs8" />
  <sodipodi:namedview
     pagecolor="#ffffff"
     bordercolor="#666666"
     borderopacity="1"
     objecttolerance="10"
     gridtolerance="10"
     guidetolerance="10"
     inkscape:pageopacity="0"
     inkscape:pageshadow="2"
     inkscape:window-width="1366"
     inkscape:window-height="721"
     id="namedview6"
     showgrid="false"
     inkscape:zoom="20.829268"
     inkscape:cx="455.85831"
     inkscape:cy="16.540749"
     inkscape:window-x="-3"
     inkscape:window-y="-3"
     inkscape:window-maximized="1"
     inkscape:current-layer="svg2" />
  <path
     style="fill:#805a8d;fill-opacity:0.99607843;stroke:none;stroke-width:0.5;stroke-miterlimit:4;stroke-dasharray:none;stroke-opacity:1"
     d="m 444.08642,574.06135 0,-0.96019 20.47599,0 20.476,0 0,0.96019 0,0.96019 -20.476,0 -20.47599,0 0,-0.96019 z"
     id="path4144"
     inkscape:connector-curvature="0" />
  <path
     style="opacity:0.79000005;fill:#000000;fill-opacity:0;stroke:none;stroke-width:0.5;stroke-miterlimit:4;stroke-dasharray:none;stroke-opacity:1"
     d="m 444.08642,575.57365 0,-2.47248 20.47599,0 20.476,0 0,2.47248 0,2.47249 -20.476,0 -20.47599,0 0,-2.47249 z"
     id="path4135"
     inkscape:connector-curvature="0" />
  <path
     style="opacity:0.79000005;fill:#000000;fill-opacity:0;stroke:none;stroke-width:0.5;stroke-miterlimit:4;stroke-dasharray:none;stroke-opacity:1"
     d="m 444.08642,575.57365 0,-2.47248 20.47599,0 20.476,0 0,2.47248 0,2.47249 -20.476,0 -20.47599,0 0,-2.47249 z"
     id="path4137"
     inkscape:connector-curvature="0" />
  <path
     style="opacity:0.79000005;fill:#000000;fill-opacity:0;stroke:none;stroke-width:0.5;stroke-miterlimit:4;stroke-dasharray:none;stroke-opacity:1"
     d="m 444.08642,575.57365 0,-2.47248 20.47599,0 20.476,0 0,2.47248 0,2.47249 -20.476,0 -20.47599,0 0,-2.47249 z"
     id="path4139"
     inkscape:connector-curvature="0" />
  <path
     style="opacity:0.79000005;fill:#000000;fill-opacity:0;stroke:none;stroke-width:0.5;stroke-miterlimit:4;stroke-dasharray:none;stroke-opacity:1"
     d="m 444.08642,575.57365 0,-2.47248 20.47599,0 20.476,0 0,2.47248 0,2.47249 -20.476,0 -20.47599,0 0,-2.47249 z"
     id="path4141"
     inkscape:connector-curvature="0" />
  <path
     style="opacity:0.60000005;fill:#805a8d;fill-opacity:0;stroke:none;stroke-width:0.5;stroke-miterlimit:4;stroke-dasharray:none;stroke-opacity:1"
     d="m 444.08642,575.57365 0,-2.47248 20.47599,0 20.476,0 0,2.47248 0,2.47249 -20.476,0 -20.47599,0 0,-2.47249 z"
     id="path4143"
     inkscape:connector-curvature="0" />
  <path
     style="opacity:0.6;fill:#805a8d;fill-opacity:0;stroke:none;stroke-width:0.5;stroke-miterlimit:4;stroke-dasharray:none;stroke-opacity:1"
     d="m 444.08642,575.57365 0,-2.47248 20.47599,0 20.476,0 0,2.47248 0,2.47249 -20.476,0 -20.47599,0 0,-2.47249 z"
     id="path4145"
     inkscape:connector-curvature="0" />
  <path
     style="opacity:0.6;fill:#805a8d;fill-opacity:0;stroke:none;stroke-width:0.5;stroke-miterlimit:4;stroke-dasharray:none;stroke-opacity:1"
     d="m 444.08642,575.57365 0,-2.47248 20.47599,0 20.476,0 0,2.47248 0,2.47249 -20.476,0 -20.47599,0 0,-2.47249 z"
     id="path4147"
     inkscape:connector-curvature="0" />
  <path
     style="opacity:0.6;fill:#805a8d;fill-opacity:0;stroke:none;stroke-width:0.5;stroke-miterlimit:4;stroke-dasharray:none;stroke-opacity:1"
     d="m 444.08642,575.57365 0,-2.47248 20.47599,0 20.476,0 0,2.47248 0,2.47249 -20.476,0 -20.47599,0 0,-2.47249 z"
     id="path4149"
     inkscape:connector-curvature="0" />
  <path
     style="opacity:0.6;fill:#805a8d;fill-opacity:0;stroke:none;stroke-width:0.5;stroke-miterlimit:4;stroke-dasharray:none;stroke-opacity:1"
     d="m 444.08642,575.57365 0,-2.47248 20.47599,0 20.476,0 0,2.47248 0,2.47249 -20.476,0 -20.47599,0 0,-2.47249 z"
     id="path4151"
     inkscape:connector-curvature="0" />
  <path
     style="fill:#805a8d;fill-opacity:0.99607843;stroke:none;stroke-width:0.5;stroke-miterlimit:4;stroke-dasharray:none;stroke-opacity:1"
     d="m 444.11066,576.7178 0,-0.96019 20.47599,0 20.476,0 0,0.96019 0,0.96019 -20.476,0 -20.47599,0 0,-0.96019 z"
     id="path4144-3"
     inkscape:connector-curvature="0" />
</svg>
