<?xml version="1.0" encoding="UTF-8" standalone="no"?>
<svg
   xmlns:dc="http://purl.org/dc/elements/1.1/"
   xmlns:cc="http://creativecommons.org/ns#"
   xmlns:rdf="http://www.w3.org/1999/02/22-rdf-syntax-ns#"
   xmlns:svg="http://www.w3.org/2000/svg"
   xmlns="http://www.w3.org/2000/svg"
   xmlns:sodipodi="http://sodipodi.sourceforge.net/DTD/sodipodi-0.dtd"
   xmlns:inkscape="http://www.inkscape.org/namespaces/inkscape"
   viewBox="0 0 1024 588"
   enable-background="new 0 0 1024 588"
   id="svg2"
   version="1.1"
   inkscape:version="0.91 r"
   sodipodi:docname="linkHome.svg">
  <metadata
     id="metadata18">
    <rdf:RDF>
      <cc:Work
         rdf:about="">
        <dc:format>image/svg+xml</dc:format>
        <dc:type
           rdf:resource="http://purl.org/dc/dcmitype/StillImage" />
        <dc:title />
      </cc:Work>
    </rdf:RDF>
  </metadata>
  <defs
     id="defs16" />
  <sodipodi:namedview
     pagecolor="#ffffff"
     bordercolor="#666666"
     borderopacity="1"
     objecttolerance="10"
     gridtolerance="10"
     guidetolerance="10"
     inkscape:pageopacity="0"
     inkscape:pageshadow="2"
     inkscape:window-width="1366"
     inkscape:window-height="721"
     id="namedview14"
     showgrid="false"
     inkscape:zoom="0.98809524"
     inkscape:cx="512"
     inkscape:cy="222.38201"
     inkscape:window-x="-3"
     inkscape:window-y="-3"
     inkscape:window-maximized="1"
     inkscape:current-layer="svg2" />
  <path
     style="fill:#805a8d;fill-opacity:1;stroke:none;stroke-width:0.5;stroke-miterlimit:4;stroke-dasharray:none;stroke-opacity:1"
     d="m 588.64079,557.78149 0,-17.93719 8.5457,0.006 8.5456,0.006 5.1137,4.45168 5.1136,4.45166 0,13.4794 0,13.47939 -13.6593,0 -13.6593,0 0,-17.93718 z m 24.7103,4.92261 0,-11.26132 -4.5988,0 -4.5989,0 0,-4.51802 0,-4.51801 -6.4521,0 -6.4521,0 0,15.77934 0,15.77933 11.0509,0 11.051,0 0,-11.26132 z"
     id="path4146"
     inkscape:connector-curvature="0" />
  <path
     style="fill:#805a8d;fill-opacity:1;stroke:none;stroke-width:0.5;stroke-miterlimit:4;stroke-dasharray:none;stroke-opacity:1"
     d="m 595.09299,556.16309 0,-1.34866 7.2071,0 7.2072,0 0,1.34866 0,1.34867 -7.2072,0 -7.2071,0 0,-1.34867 z"
     id="path4148"
     inkscape:connector-curvature="0" />
  <path
     style="fill:#805a8d;fill-opacity:1;stroke:none;stroke-width:0.5;stroke-miterlimit:4;stroke-dasharray:none;stroke-opacity:1"
     d="m 595.09299,561.96234 0,-1.34867 7.2071,0 7.2072,0 0,1.34867 0,1.34866 -7.2072,0 -7.2071,0 0,-1.34866 z"
     id="path4150"
     inkscape:connector-curvature="0" />
  <path
     style="fill:#805a8d;fill-opacity:1;stroke:none;stroke-width:0.5;stroke-miterlimit:4;stroke-dasharray:none;stroke-opacity:1"
     d="m 595.09299,567.76158 0,-1.34866 7.2071,0 7.2072,0 0,1.34866 0,1.34866 -7.2072,0 -7.2071,0 0,-1.34866 z"
     id="path4152"
     inkscape:connector-curvature="0" />
  <path
     style="fill:#805a8d;fill-opacity:1;stroke:none;stroke-width:0.5;stroke-miterlimit:4;stroke-dasharray:none;stroke-opacity:1"
     d="m 533.86479,579.50872 c 17.5983,-0.021 46.4404,-0.021 64.0935,0 17.6531,0.021 3.2544,0.0382 -31.997,0.0382 -35.2514,0 -49.69484,-0.0172 -32.0965,-0.0382 z"
     id="path4154"
     inkscape:connector-curvature="0" />
  <path
     style="fill:#805a8d;fill-opacity:1;stroke:none;stroke-width:0.5;stroke-miterlimit:4;stroke-dasharray:none;stroke-opacity:1"
     d="m 548.07369,579.50872 c 9.8927,-0.0213 26.0362,-0.0213 35.8744,0 9.8381,0.0213 1.7441,0.0388 -17.9868,0.0388 -19.7309,0 -27.7803,-0.0174 -17.8876,-0.0388 z"
     id="path4156"
     inkscape:connector-curvature="0" />
  <path
     style="fill:#805a8d;fill-opacity:1;stroke:none;stroke-width:0.5;stroke-miterlimit:4;stroke-dasharray:none;stroke-opacity:1"
     d="m 501.94286,556.95591 0,-22.51528 64.01843,0 64.01853,0 0,22.51528 0,22.51528 -64.01853,0 -64.01843,0 0,-22.51528 z m 127.28646,0 0,-21.76477 -63.26803,0 -63.26792,0 0,21.76477 0,21.76477 63.26792,0 63.26803,0 0,-21.76477 z"
     id="path4158"
     inkscape:connector-curvature="0" />
  <text
     xml:space="preserve"
     style="font-style:normal;font-weight:normal;font-size:17.5px;line-height:125%;font-family:Sans;letter-spacing:0px;word-spacing:0px;fill:#000000;fill-opacity:1;stroke:none;stroke-width:1px;stroke-linecap:butt;stroke-linejoin:miter;stroke-opacity:1"
     x="515.16327"
     y="573.31866"
     id="text4160"
     sodipodi:linespacing="125%"><tspan
       sodipodi:role="line"
       id="tspan4162"
       x="515.16327"
       y="573.31866"
       style="font-style:normal;font-variant:normal;font-weight:normal;font-stretch:normal;font-family:'Abyssinica SIL';-inkscape-font-specification:'Abyssinica SIL';fill:#805a8d;fill-opacity:1">Glosario</tspan></text>
</svg>
