<?xml version="1.0" encoding="UTF-8" standalone="no"?>
<svg
   xmlns:dc="http://purl.org/dc/elements/1.1/"
   xmlns:cc="http://creativecommons.org/ns#"
   xmlns:rdf="http://www.w3.org/1999/02/22-rdf-syntax-ns#"
   xmlns:svg="http://www.w3.org/2000/svg"
   xmlns="http://www.w3.org/2000/svg"
   xmlns:sodipodi="http://sodipodi.sourceforge.net/DTD/sodipodi-0.dtd"
   xmlns:inkscape="http://www.inkscape.org/namespaces/inkscape"
   viewBox="0 0 1024 588"
   enable-background="new 0 0 1024 588"
   id="svg2"
   version="1.1"
   inkscape:version="0.91 r"
   sodipodi:docname="pause-01.svg">
  <metadata
     id="metadata16">
    <rdf:RDF>
      <cc:Work
         rdf:about="">
        <dc:format>image/svg+xml</dc:format>
        <dc:type
           rdf:resource="http://purl.org/dc/dcmitype/StillImage" />
      </cc:Work>
    </rdf:RDF>
  </metadata>
  <defs
     id="defs14" />
  <sodipodi:namedview
     pagecolor="#ffffff"
     bordercolor="#666666"
     borderopacity="1"
     objecttolerance="10"
     gridtolerance="10"
     guidetolerance="10"
     inkscape:pageopacity="0"
     inkscape:pageshadow="2"
     inkscape:window-width="1366"
     inkscape:window-height="721"
     id="namedview12"
     showgrid="false"
     inkscape:zoom="18.651087"
     inkscape:cx="54.4"
     inkscape:cy="28.8"
     inkscape:window-x="-3"
     inkscape:window-y="-3"
     inkscape:window-maximized="1"
     inkscape:current-layer="svg2" />
  <g
     id="g4">
    <path
       fill="#fff"
       stroke="#444"
       stroke-width="1.151"
       stroke-miterlimit="10"
       d="M39.4 544.2h30v30h-30z"
       id="path6" />
    <g
       fill="#444"
       id="g8">
      <path
         d="M49.2 551.3h4.2v16.6h-4.2zM55.4 551.3h4.2v16.6h-4.2z"
         id="path10" />
    </g>
  </g>
  <path
     style="fill:#805a8d;fill-opacity:1;stroke:none;stroke-width:0.5;stroke-miterlimit:4;stroke-dasharray:none;stroke-opacity:1"
     d="m 38.840585,559.21072 0,-15.54869 15.548692,0 15.548692,0 0,15.54869 0,15.5487 -15.548692,0 -15.548692,0 0,-15.5487 z m 30.02506,-0.0268 0,-14.44957 -14.44956,0 -14.44956,0 0,14.44957 0,14.44956 14.44956,0 14.44956,0 0,-14.44956 z"
     id="path4144"
     inkscape:connector-curvature="0" />
  <path
     style="fill:#805a8d;fill-opacity:1;stroke:none;stroke-width:0.5;stroke-miterlimit:4;stroke-dasharray:none;stroke-opacity:1"
     d="m 49.242124,559.61284 0,-8.2837 2.064222,0 2.064223,0 0,8.2837 0,8.2837 -2.064223,0 -2.064222,0 0,-8.2837 z"
     id="path4146"
     inkscape:connector-curvature="0" />
  <path
     style="fill:#805a8d;fill-opacity:1;stroke:none;stroke-width:0.5;stroke-miterlimit:4;stroke-dasharray:none;stroke-opacity:1"
     d="m 55.407984,559.61284 0,-8.2837 2.091031,0 2.091031,0 0,8.2837 0,8.2837 -2.091031,0 -2.091031,0 0,-8.2837 z"
     id="path4148"
     inkscape:connector-curvature="0" />
</svg>
