<svg xmlns="http://www.w3.org/2000/svg" viewBox="0 0 1024 588" enable-background="new 0 0 1024 588"><g><path fill="#fff" stroke="#444" stroke-width=".887" stroke-miterlimit="10" d="M602.7 536.8h127.3v44.3h-127.3z"/><path fill="#444" d="M696.3 541.7c-10.2 0-18.5 6.3-18.5 14.1 0 4.4 2.6 8.3 6.7 10.9-1.4 2.9-4.6 4.7-4.6 4.7s5.3 1.9 10.4-1.3l1-.7c1.6.4 3.3.5 5.1.5 10.2 0 18.5-6.3 18.5-14.1-.1-7.8-8.4-14.1-18.6-14.1zm-9.4 16.5c-1.2 0-2.2-1-2.2-2.2 0-1.2 1-2.2 2.2-2.2 1.2 0 2.2 1 2.2 2.2-.1 1.2-1 2.2-2.2 2.2zm9.3 0c-1.2 0-2.2-1-2.2-2.2 0-1.2 1-2.2 2.2-2.2s2.2 1 2.2 2.2c0 1.2-1 2.2-2.2 2.2zm9.5 0c-1.2 0-2.2-1-2.2-2.2 0-1.2 1-2.2 2.2-2.2 1.2 0 2.2 1 2.2 2.2-.1 1.2-1 2.2-2.2 2.2z"/><text transform="translate(621.625 577.985)" fill="#444" font-family="'Verdana'" font-size="10">Subtítulos</text></g></svg>