<svg xmlns="http://www.w3.org/2000/svg" viewBox="0 0 1024 768" enable-background="new 0 0 1024 768"><g><path fill="#fff" stroke="#444" stroke-width=".887" stroke-miterlimit="10" d="M602.7 626.8h127.3v44.3h-127.3z"/><path fill="#444" d="M705.5 631.7c-11.2 0-20.3 6.9-20.3 15.5 0 4.8 2.9 9.1 7.3 12-1.5 3.2-5 5.2-5 5.2s5.8 2.1 11.4-1.4c.3-.2.8-.5 1.1-.8 1.8.4 3.6.5 5.6.5 11.2 0 20.3-6.9 20.3-15.5-.1-8.6-9.2-15.5-20.4-15.5zm-10.3 18.1c-1.3 0-2.4-1.1-2.4-2.4 0-1.3 1.1-2.4 2.4-2.4 1.3 0 2.4 1.1 2.4 2.4-.1 1.3-1.1 2.4-2.4 2.4zm10.2 0c-1.3 0-2.4-1.1-2.4-2.4 0-1.3 1.1-2.4 2.4-2.4 1.3 0 2.4 1.1 2.4 2.4 0 1.3-1.1 2.4-2.4 2.4zm10.4 0c-1.3 0-2.4-1.1-2.4-2.4 0-1.3 1.1-2.4 2.4-2.4 1.3 0 2.4 1.1 2.4 2.4-.1 1.3-1.1 2.4-2.4 2.4z"/><text transform="translate(608.856 667.985)" fill="#444" font-family="'Verdana'" font-size="10">Subtítulos</text></g></svg>