<svg xmlns="http://www.w3.org/2000/svg" viewBox="0 0 1024 588" enable-background="new 0 0 1024 588"><g><path fill="#E8E8E8" stroke="#444" stroke-miterlimit="10" d="M394.9 570.3h-129.8v-26.1h129.8z"/><path fill="#fff" stroke="#444" stroke-miterlimit="10" d="M368.8 544.2h26.1v26.1h-26.1z"/><text transform="translate(270.131 564.985)" fill="#444" font-family="'Verdana'" font-size="10">Velocidad / speed</text><g fill="#444"><path d="M370.4 560.8h2.2c0-4 4-9 9-9 4.9 0 9 5 9 9h2.2c0-6-5-11.2-11.2-11.2-6.2.1-11.2 5.2-11.2 11.2zM381.9 555.7h-.7c-.2 0-.4-.2-.4-.4v-1.9c0-.2.2-.4.4-.4h.7c.2 0 .4.2.4.4v1.9c0 .2-.2.4-.4.4zM376 560.9v.7c0 .2-.2.4-.4.4h-1.9c-.2 0-.4-.2-.4-.4v-.7c0-.2.2-.4.4-.4h1.9c.2 0 .4.2.4.4zM389.8 560.9v.7c0 .2-.2.4-.4.4h-1.9c-.2 0-.4-.2-.4-.4v-.7c0-.2.2-.4.4-.4h1.9c.2 0 .4.2.4.4zM387 555.7l-6.2 4.2c-.5.3-.8.8-.8 1.4 0 .9.7 1.6 1.6 1.6.6 0 1.1-.3 1.4-.8l4-6.4z"/></g></g></svg>