<svg xmlns="http://www.w3.org/2000/svg" viewBox="0 0 1024 588" enable-background="new 0 0 1024 588"><g><path fill="#fff" stroke="#444" stroke-width=".887" stroke-miterlimit="10" d="M738.7 536.8h127.3v44.3h-127.3z"/><text transform="translate(745.283 577.485)" fill="#444" font-family="'Verdana'" font-size="10">Intérprete</text><g fill="#444"><path d="M803 560.4s-2.3-3.1-2.4-7.4.8-6.3 2.9-6.7c2.2-.3 4.2-3.1 7.5-3.2s4.4.5 6.6.5c2.2 0 18.2-.3 18.2-.3s2.7-.3 2.8 1.6c.1 1.9-2.4 2.3-2.4 2.3l-15.8.5-.1.5 16.7 2.8s2.3.4 1.9 2.3c-.4 1.9-2.6 1.8-2.6 1.8l-16.2-1.9-.2.3 1.7.3s1 .9.5 2.4l-2.1 2s.5.8-.3 1.7c-.8.9-2.9 1.3-2.9 1.3s-2.8.3-5.5.2c-2.6.1-8.3-1-8.3-1zM860.9 562.3c-1-.6-4.3-.6-5.4-1.3l-2.8-2.3s-3.7-2.4-7.8-3c-4.1-.6-7.6-.1-10.2 1.3-2.6 1.4-5.2 3.4-5.8 3.7-.6.3-4.6 3.7-5.5 4.2-1.3.9-3.2 1.9-4.5 2.7-2 1.2-4.1 2.5-3.7 3.8.2.7.9.3.9.3s2.1-1.3 3-1.9c1.1-.7 6.1-3.5 6.1-3.5l1.3.2-8.6 5.4s-3.4 2.1-3.3 3.5c.1 1 .8 1.7 2 2 .6.2 1.6.1 1.6.1s-.1-1.5.8-2.7c.6-.9 3.6-3 3.6-3s7.2-4.8 7.4-4.8l1.4.2-9.4 6.5s-3.4 2-2.4 3.8c.7 1.4 1.9 1.2 2.9.9.7-.2 1.6-.6 1.6-.6s-.5-1.4.4-2.8c1.2-1.7 3.4-3 3.4-3l6.5-4.5 1.6.2-8.7 6.5s-1.9 1.3-1.6 2.7c.4 1.8 2.6 1 4.4-.2.8-.6 2.8-2.1 5.5-3.7 2-1.2 3.8-2.3 5.2-3 2.4-1.2 4.5-2.6 5.5-3.3.9-.8 3.1-2.4 3.1-2.4s6 2.3 8.2 2.4c2.2.1 3.2-.3 3.6-1.4.6-.9.6-2.4-.3-3zm-20.7.2c-2.4-1.5-2.5-4.7-2.5-4.7h1.3s0 2.2 2.2 3.7c2.2 1.6 5.2 1.5 5.2 1.5v.9s-3.8.1-6.2-1.4z"/></g></g></svg>